<svg xmlns="http://www.w3.org/2000/svg" width="201" height="209"><rect id="backgroundrect" width="100%" height="100%" x="0" y="0" fill="none" stroke="none"/>
 <g>
  <title>background</title>
  <rect x="-1" y="-1" width="203" height="211" id="canvas_background" fill="none"/>
 </g>

 <g class="currentLayer">
  <title>Layer 1</title>
  <g stroke="null" id="svg_1" class="selected" fill="#ffffff" fill-opacity="1">
   <path stroke="null" d="m117.33065078298569,115.82770578298569 c-2.016323,-1.986238 -5.247543,-1.950265 -7.218768,0.07708200000000001 c-1.972084,2.028206 -1.9371990000000001,5.2820730000000005 0.07656700000000001,7.2674520000000005 l40.186881,39.601401 c0.9937,0.978984 2.282612,1.466338 3.570676,1.466338 c1.3246470000000001,0 2.64844,-0.516473 3.648092,-1.544284 c1.972084,-2.028201 1.937204,-5.282068 -0.07656700000000001,-7.2674520000000005 l-40.186881,-39.600541 l0,0.000005000000000000002 z" id="svg_3" fill="#ffffff" fill-opacity="1"/>
   <path stroke="null" d="m81.22319978298569,93.15514078298568 c0.996246,1.002968 2.303026,1.504879 3.609806,1.504879 s2.61271,-0.501911 3.609811,-1.504879 c1.9933519999999998,-2.006795 1.9933519999999998,-5.260657 0,-7.2674520000000005 l-38.485346,-38.744893 c-1.9933519999999998,-2.00679 -5.22627,-2.00679 -7.218768,0 c-1.9933519999999998,2.006795 -1.9933519999999998,5.260662 0,7.2674520000000005 l38.484498,38.744893 z" id="svg_4" fill="#ffffff" fill-opacity="1"/>
   <path stroke="null" d="m158.55581878298568,47.14280078298569 c-1.9933519999999998,-2.006795 -5.22627,-2.006795 -7.218768,0 l-107.599203,108.324841 c-1.993347,2.006795 -1.993347,5.260662 0,7.2674520000000005 c0.9962519999999999,1.002968 2.303031,1.504884 3.609811,1.504884 s2.61271,-0.5019159999999999 3.609811,-1.504884 l107.598349,-108.323987 c1.993347,-2.007649 1.993347,-5.260657 0,-7.268306 z" id="svg_5" fill="#ffffff" fill-opacity="1"/>
  </g>
  <g id="svg_6"/>
  <g id="svg_7"/>
  <g id="svg_8"/>
  <g id="svg_9"/>
  <g id="svg_10"/>
  <g id="svg_11"/>
  <g id="svg_12"/>
  <g id="svg_13"/>
  <g id="svg_14"/>
  <g id="svg_15"/>
  <g id="svg_16"/>
  <g id="svg_17"/>
  <g id="svg_18"/>
  <g id="svg_19"/>
  <g id="svg_20"/>
 </g>
</svg>